<svg width="20" height="16" viewBox="0 0 20 16" fill="none" xmlns="http://www.w3.org/2000/svg">
<path fill-rule="evenodd" clip-rule="evenodd" d="M20 0.857143C20 1.33053 19.6162 1.71429 19.1429 1.71429H0.857143C0.383756 1.71429 0 1.33053 0 0.857143C0 0.383756 0.383756 0 0.857143 0H19.1429C19.6162 0 20 0.383756 20 0.857143Z" fill="#C1C1C3"/>
<path fill-rule="evenodd" clip-rule="evenodd" d="M9.71429 7.71429C9.71429 8.18767 9.33053 8.57143 8.85714 8.57143H0.857143C0.383756 8.57143 0 8.18767 0 7.71429C0 7.2409 0.383756 6.85714 0.857143 6.85714H8.85714C9.33053 6.85714 9.71429 7.2409 9.71429 7.71429Z" fill="#C1C1C3"/>
<path fill-rule="evenodd" clip-rule="evenodd" d="M9.71429 14.5714C9.71429 15.0448 9.33053 15.4286 8.85714 15.4286H0.857143C0.383756 15.4286 0 15.0448 0 14.5714C0 14.098 0.383756 13.7143 0.857143 13.7143H8.85714C9.33053 13.7143 9.71429 14.098 9.71429 14.5714Z" fill="#C1C1C3"/>
<path fill-rule="evenodd" clip-rule="evenodd" d="M13.0857 10.6795C13.0857 9.48369 14.0551 8.51427 15.251 8.51427C16.4468 8.51427 17.4162 9.48369 17.4162 10.6795C17.4162 11.8754 16.4468 12.8448 15.251 12.8448C14.0551 12.8448 13.0857 11.8754 13.0857 10.6795ZM15.251 6.91427C13.1715 6.91427 11.4857 8.60003 11.4857 10.6795C11.4857 12.759 13.1715 14.4448 15.251 14.4448C15.9571 14.4448 16.6178 14.2504 17.1825 13.9122L18.5771 15.3068C18.8895 15.6193 19.3961 15.6193 19.7085 15.3068C20.0209 14.9944 20.0209 14.4879 19.7085 14.1755L18.3507 12.8176C18.7704 12.2103 19.0162 11.4736 19.0162 10.6795C19.0162 8.60003 17.3304 6.91427 15.251 6.91427Z" fill="#C1C1C3"/>
</svg>
