<svg width="35" height="44" viewBox="0 0 35 44" fill="none" xmlns="http://www.w3.org/2000/svg">
<path fill-rule="evenodd" clip-rule="evenodd" d="M1.06509 14.8831C-1.54427 11.404 0.938192 6.43902 5.28714 6.43902H29.2501C33.599 6.43902 36.0815 11.404 33.4721 14.8831C32.3584 16.368 31.7564 18.1741 31.7564 20.0303V33.8049C31.7564 39.4355 27.1919 44 21.5613 44H12.9759C7.34532 44 2.78081 39.4355 2.78081 33.8049V20.0303C2.78081 18.1741 2.17878 16.368 1.06509 14.8831ZM5.28714 9.65854C3.59122 9.65854 2.62315 11.5947 3.6407 12.9514C5.17236 14.9936 6.00032 17.4775 6.00032 20.0303V33.8049C6.00032 37.6574 9.12341 40.7805 12.9759 40.7805H21.5613C25.4138 40.7805 28.5369 37.6574 28.5369 33.8049V20.0303C28.5369 17.4775 29.3649 14.9936 30.8965 12.9514C31.9141 11.5947 30.946 9.65854 29.2501 9.65854H5.28714Z" fill="#F08970"/>
<path fill-rule="evenodd" clip-rule="evenodd" d="M21.5613 17.1707C22.4503 17.1707 23.1711 17.8914 23.1711 18.7805V31.6585C23.1711 32.5476 22.4503 33.2683 21.5613 33.2683C20.6723 33.2683 19.9515 32.5476 19.9515 31.6585V18.7805C19.9515 17.8914 20.6723 17.1707 21.5613 17.1707Z" fill="#F08970"/>
<path fill-rule="evenodd" clip-rule="evenodd" d="M12.9759 17.1707C13.865 17.1707 14.5857 17.8914 14.5857 18.7805L14.5857 31.6585C14.5857 32.5476 13.865 33.2683 12.9759 33.2683C12.0869 33.2683 11.3662 32.5476 11.3662 31.6585L11.3662 18.7805C11.3662 17.8914 12.0869 17.1707 12.9759 17.1707Z" fill="#F08970"/>
<path fill-rule="evenodd" clip-rule="evenodd" d="M8.32403 4.03592C9.12744 1.62571 11.383 0 13.9236 0H20.6136C23.1542 0 25.4098 1.62571 26.2132 4.03592L27.3811 7.53973C27.6623 8.38315 27.2064 9.29479 26.363 9.57593C25.5196 9.85707 24.608 9.40125 24.3268 8.55783L23.1589 5.05402C22.7937 3.95847 21.7685 3.21951 20.6136 3.21951H13.9236C12.7688 3.21951 11.7435 3.95847 11.3783 5.05402L10.2104 8.55783C9.92926 9.40125 9.01762 9.85707 8.1742 9.57593C7.33078 9.29479 6.87496 8.38315 7.1561 7.53973L8.32403 4.03592Z" fill="#F08970"/>
</svg>
