<svg width="20" height="18" viewBox="0 0 20 18" fill="none" xmlns="http://www.w3.org/2000/svg">
<path fill-rule="evenodd" clip-rule="evenodd" d="M4.52614 0.0560861C6.50087 -0.229187 8.64972 0.576897 10 2.4032C11.3503 0.576897 13.4991 -0.229187 15.4739 0.0560861C16.6774 0.229958 17.8209 0.810771 18.6611 1.81206C19.5035 2.816 20 4.19287 20 5.89012C20 9.33927 17.4508 12.3639 15.1349 14.4276C13.951 15.4826 12.7709 16.3367 11.8886 16.9264C11.4466 17.2218 11.0773 17.4522 10.817 17.6096C10.6868 17.6883 10.5837 17.7489 10.5123 17.7903C10.4766 17.811 10.4487 17.8269 10.4294 17.8379L10.4067 17.8507L10.4003 17.8543L10.3983 17.8554L10.3972 17.856L10 17.1428C9.6028 17.856 9.60191 17.8555 9.60167 17.8554L9.5997 17.8543L9.59326 17.8507L9.57063 17.8379C9.55126 17.8269 9.52343 17.811 9.48771 17.7903C9.41626 17.7489 9.31319 17.6883 9.18299 17.6096C8.92269 17.4522 8.55343 17.2218 8.11145 16.9264C7.22909 16.3367 6.04897 15.4826 4.86507 14.4276C2.54923 12.3639 0 9.33927 0 5.89012C0 4.19287 0.496534 2.816 1.33894 1.81206C2.17912 0.810771 3.32256 0.229958 4.52614 0.0560861ZM10 17.1428C10.3972 17.856 10.397 17.8562 10.3972 17.856C10.1503 17.9935 9.84974 17.9935 9.6028 17.856L10 17.1428Z" fill="#E95733"/>
</svg>
