<svg width="44" height="44" viewBox="0 0 44 44" fill="none" xmlns="http://www.w3.org/2000/svg">
<path fill-rule="evenodd" clip-rule="evenodd" d="M0 11.7674C0 5.26846 5.26846 0 11.7674 0H32.2326C38.7315 0 44 5.26846 44 11.7674V32.2326C44 38.7315 38.7315 44 32.2326 44H11.7674C5.26846 44 0 38.7315 0 32.2326V11.7674ZM11.7674 3.06977C6.96385 3.06977 3.06977 6.96385 3.06977 11.7674V32.2326C3.06977 37.0362 6.96385 40.9302 11.7674 40.9302H32.2326C37.0362 40.9302 40.9302 37.0362 40.9302 32.2326V11.7674C40.9302 6.96385 37.0362 3.06977 32.2326 3.06977H11.7674Z" fill="#DADADA"/>
<path fill-rule="evenodd" clip-rule="evenodd" d="M31.7877 23.2862C30.934 22.5747 29.6785 22.6317 28.8926 23.4175L18.6823 33.6279C17.1238 35.1863 14.5971 35.1863 13.0386 33.6279L10.8422 31.4314C10.0994 30.6887 8.92851 30.5918 8.07374 31.2023L3.45026 34.5048C2.76047 34.9975 1.80186 34.8377 1.30915 34.1479C0.816434 33.4581 0.976203 32.4995 1.666 32.0068L6.28947 28.7044C8.36535 27.2216 11.209 27.4569 13.0128 29.2608L15.2093 31.4572C15.5689 31.8169 16.152 31.8169 16.5117 31.4572L26.722 21.2469C28.6305 19.3384 31.6795 19.2001 33.753 20.928L43.4477 29.0069C44.0989 29.5496 44.1869 30.5174 43.6442 31.1687C43.1016 31.8199 42.1337 31.9079 41.4825 31.3652L31.7877 23.2862Z" fill="#DADADA"/>
<path fill-rule="evenodd" clip-rule="evenodd" d="M13.8139 11.2558C15.2268 11.2558 16.3721 12.4011 16.3721 13.814C16.3721 15.2268 15.2268 16.3721 13.8139 16.3721C12.4011 16.3721 11.2558 15.2268 11.2558 13.814C11.2558 12.4011 12.4011 11.2558 13.8139 11.2558ZM19.4419 13.814C19.4419 10.7057 16.9222 8.18605 13.8139 8.18605C10.7057 8.18605 8.18604 10.7057 8.18604 13.814C8.18604 16.9222 10.7057 19.4419 13.8139 19.4419C16.9222 19.4419 19.4419 16.9222 19.4419 13.814Z" fill="#DADADA"/>
</svg>
