<svg width="20" height="20" viewBox="0 0 20 20" fill="none" xmlns="http://www.w3.org/2000/svg">
<path fill-rule="evenodd" clip-rule="evenodd" d="M11.9647 2.14549C10.8128 1.23606 9.18723 1.23605 8.03528 2.14549L2.66942 6.38169C1.90778 6.98299 1.46341 7.89995 1.46341 8.87035V15.2719C1.46341 17.023 2.883 18.4426 4.63415 18.4426H6.09756C6.23226 18.4426 6.34146 18.3334 6.34146 18.1987V15.2719C6.34146 13.7902 7.54265 12.589 9.02439 12.589H10.9756C12.4573 12.589 13.6585 13.7902 13.6585 15.2719V18.1987C13.6585 18.3334 13.7677 18.4426 13.9024 18.4426H15.3659C17.117 18.4426 18.5366 17.023 18.5366 15.2719V8.87035C18.5366 7.89995 18.0922 6.98299 17.3306 6.3817L11.9647 2.14549ZM7.12848 0.996884C8.81211 -0.332296 11.1879 -0.332294 12.8715 0.996885L18.2374 5.23309C19.3505 6.11191 20 7.45208 20 8.87035V15.2719C20 17.8313 17.9252 19.906 15.3659 19.906H13.9024C12.9595 19.906 12.1951 19.1417 12.1951 18.1987V15.2719C12.1951 14.5984 11.6491 14.0524 10.9756 14.0524H9.02439C8.35087 14.0524 7.80488 14.5984 7.80488 15.2719V18.1987C7.80488 19.1417 7.04049 19.906 6.09756 19.906H4.63415C2.07478 19.906 0 17.8313 0 15.2719V8.87035C0 7.45208 0.649452 6.11191 1.76262 5.23309L7.12848 0.996884Z" fill="#C1C1C3"/>
</svg>
