<svg width="20" height="16" viewBox="0 0 20 16" fill="none" xmlns="http://www.w3.org/2000/svg">
<path fill-rule="evenodd" clip-rule="evenodd" d="M9.4832 1.39535C6.88466 1.39535 4.74963 3.38329 4.51716 5.92083C4.48372 6.28583 4.17733 6.56369 3.81244 6.56337C2.49879 6.56223 1.39535 7.65553 1.39535 8.96641C1.39535 10.2936 2.47125 11.3695 3.79845 11.3695H4.4186C4.80392 11.3695 5.11628 11.6819 5.11628 12.0672C5.11628 12.4525 4.80392 12.7649 4.4186 12.7649H3.79845C1.70062 12.7649 0 11.0642 0 8.96641C0 7.08317 1.40992 5.5092 3.20709 5.21673C3.75518 2.24818 6.3563 0 9.4832 0C11.8111 0 13.8469 1.24642 14.9613 3.10572C17.6302 3.00051 20 5.1835 20 7.93282C20 10.4388 18.0929 12.4985 15.6503 12.741C15.2669 12.7791 14.9252 12.4991 14.8871 12.1157C14.8491 11.7323 15.129 11.3906 15.5125 11.3525C17.2484 11.1802 18.6047 9.71444 18.6047 7.93282C18.6047 5.87442 16.7007 4.24104 14.6754 4.53107C14.3774 4.57374 14.081 4.42272 13.9433 4.1484C13.123 2.51434 11.4331 1.39535 9.4832 1.39535Z" fill="#DADADA"/>
<path fill-rule="evenodd" clip-rule="evenodd" d="M9.99999 9.12619L11.8322 10.9584C12.1047 11.2309 12.5464 11.2309 12.8189 10.9584C13.0913 10.686 13.0913 10.2442 12.8189 9.97177L10.8222 7.97509C10.3681 7.52099 9.63187 7.52099 9.17777 7.97509L7.18109 9.97177C6.90863 10.2442 6.90863 10.686 7.18109 10.9584C7.45355 11.2309 7.89529 11.2309 8.16775 10.9584L9.99999 9.12619Z" fill="#DADADA"/>
<path fill-rule="evenodd" clip-rule="evenodd" d="M10 15.3488C10.3853 15.3488 10.6977 15.0365 10.6977 14.6512L10.6977 9.06977C10.6977 8.68445 10.3853 8.37209 10 8.37209C9.61468 8.37209 9.30232 8.68445 9.30232 9.06977L9.30232 14.6512C9.30232 15.0365 9.61468 15.3488 10 15.3488Z" fill="#DADADA"/>
</svg>
