<svg width="16" height="16" viewBox="0 0 16 16" fill="none" xmlns="http://www.w3.org/2000/svg">
<path fill-rule="evenodd" clip-rule="evenodd" d="M7.99979 3.34888C7.69154 3.34888 7.44165 3.09899 7.44165 2.79074L7.44165 0.558179C7.44165 0.249927 7.69154 3.98268e-05 7.99979 3.98403e-05C8.30804 3.98538e-05 8.55793 0.249927 8.55793 0.558179L8.55793 2.79074C8.55793 3.09899 8.30804 3.34888 7.99979 3.34888Z" fill="#C1C1C3"/>
<path fill-rule="evenodd" clip-rule="evenodd" d="M7.99979 16C7.69154 16 7.44165 15.7501 7.44165 15.4419L7.44165 13.2093C7.44165 12.9011 7.69154 12.6512 7.99979 12.6512C8.30804 12.6512 8.55793 12.9011 8.55793 13.2093L8.55793 15.4419C8.55793 15.7501 8.30804 16 7.99979 16Z" fill="#C1C1C3"/>
<path fill-rule="evenodd" clip-rule="evenodd" d="M12.6511 8.00003C12.6511 7.69178 12.901 7.44189 13.2093 7.44189L15.4418 7.44189C15.7501 7.44189 16 7.69178 16 8.00003C16 8.30829 15.7501 8.55817 15.4418 8.55817L13.2093 8.55817C12.901 8.55817 12.6511 8.30829 12.6511 8.00003Z" fill="#C1C1C3"/>
<path fill-rule="evenodd" clip-rule="evenodd" d="M-4.87941e-08 8.00003C-2.18459e-08 7.69178 0.249888 7.44189 0.55814 7.44189L2.7907 7.44189C3.09895 7.44189 3.34884 7.69178 3.34884 8.00003C3.34884 8.30829 3.09895 8.55817 2.7907 8.55817L0.558139 8.55817C0.249887 8.55817 -7.57423e-08 8.30829 -4.87941e-08 8.00003Z" fill="#C1C1C3"/>
<path fill-rule="evenodd" clip-rule="evenodd" d="M11.289 4.71113C11.071 4.49316 11.071 4.13977 11.289 3.9218L12.8676 2.34315C13.0856 2.12518 13.439 2.12518 13.6569 2.34315C13.8749 2.56111 13.8749 2.91451 13.6569 3.13247L12.0783 4.71113C11.8603 4.9291 11.5069 4.9291 11.289 4.71113Z" fill="#C1C1C3"/>
<path fill-rule="evenodd" clip-rule="evenodd" d="M2.34291 13.6571C2.12494 13.4391 2.12494 13.0857 2.34291 12.8677L3.92156 11.2891C4.13953 11.0711 4.49292 11.0711 4.71089 11.2891C4.92886 11.507 4.92886 11.8604 4.71089 12.0784L3.13223 13.6571C2.91427 13.875 2.56087 13.875 2.34291 13.6571Z" fill="#C1C1C3"/>
<path fill-rule="evenodd" clip-rule="evenodd" d="M4.71107 4.71111C4.4931 4.92908 4.13971 4.92908 3.92174 4.71111L2.34309 3.13245C2.12512 2.91449 2.12512 2.56109 2.34309 2.34312C2.56105 2.12516 2.91445 2.12516 3.13241 2.34312L4.71107 3.92178C4.92904 4.13975 4.92904 4.49314 4.71107 4.71111Z" fill="#C1C1C3"/>
<path fill-rule="evenodd" clip-rule="evenodd" d="M13.6566 13.657C13.4387 13.875 13.0853 13.875 12.8673 13.657L11.2886 12.0784C11.0707 11.8604 11.0707 11.507 11.2886 11.289C11.5066 11.0711 11.86 11.0711 12.078 11.289L13.6566 12.8677C13.8746 13.0857 13.8746 13.4391 13.6566 13.657Z" fill="#C1C1C3"/>
</svg>
