<svg width="72" height="72" viewBox="0 0 72 72" fill="none" xmlns="http://www.w3.org/2000/svg">
<rect width="72" height="72" rx="8" fill="#ADD3FB"/>
<path d="M45.346 48.6642C46.8781 42.5822 41.6782 37.0573 36.4784 34.736C34.6781 33.9155 32.7318 33.4641 30.7542 33.4082C28.7767 33.3524 26.808 33.6934 24.9644 34.411C23.1305 35.1706 21.5295 36.4007 20.323 37.9769C19.1165 39.5532 18.3473 41.4199 18.093 43.3885C17.8387 45.3572 18.1082 47.3581 18.8745 49.1892C19.6408 51.0203 20.8766 52.6169 22.4573 53.8176C24.6294 55.8398 27.3112 57.2324 30.2149 57.8459C33.1186 58.4593 36.1345 58.2705 38.939 57.2997C40.5447 56.3799 41.9428 55.1379 43.0453 53.6518C44.1479 52.1657 44.9312 50.4676 45.346 48.6642Z" fill="#5CA6F8"/>
<path d="M32.1142 24.1878C32.3947 22.5474 32.2994 20.8647 31.8356 19.2665C31.6367 18.0742 31.0213 16.9912 30.0989 16.21C29.1765 15.4287 28.007 15 26.7982 15C25.5895 15 24.4199 15.4287 23.4976 16.21C22.5752 16.9912 21.9598 18.0742 21.7609 19.2665C21.7348 19.6994 21.7348 20.1335 21.7609 20.5664V20.9379C21.5055 22.0689 21.5055 23.2425 21.7609 24.3735C22.0617 25.5115 22.6538 26.5516 23.4787 27.3913C24.4796 28.3859 25.8283 28.9521 27.2393 28.9698C28.4702 28.8344 29.62 28.2893 30.504 27.4221C31.388 26.5549 31.9551 25.4159 32.1142 24.1878Z" fill="#5CA6F8"/>
<path d="M44.4642 29.4439C44.6695 28.8062 44.7342 28.1315 44.6541 27.4663C44.574 26.8012 44.3508 26.1612 43.9999 25.5905C43.2597 24.5326 42.1776 23.762 40.9357 23.4084C39.6251 23.0474 38.2251 23.214 37.0358 23.8726C35.8794 24.5599 35.0192 25.6518 34.6216 26.9369C34.4161 27.5847 34.3554 28.2697 34.4436 28.9435C34.5318 29.6174 34.767 30.2637 35.1323 30.8367C35.8229 31.9902 36.9135 32.8495 38.1965 33.251C38.8428 33.4335 39.519 33.4856 40.1856 33.4042C40.8523 33.3228 41.4961 33.1095 42.0794 32.7768C42.6628 32.444 43.1741 31.9985 43.5835 31.4661C43.993 30.9338 44.2924 30.3253 44.4642 29.6761V29.4439Z" fill="#5CA6F8"/>
<path d="M53.3318 39.8433C53.7686 39.1479 54.0004 38.3433 54.0004 37.522C54.0004 36.7007 53.7686 35.8961 53.3318 35.2006C53.3318 34.8756 52.8675 34.5506 52.6354 34.2256C51.7719 33.4025 50.6248 32.9434 49.4319 32.9434C48.239 32.9434 47.0918 33.4025 46.2284 34.2256C45.3916 35.0914 44.9238 36.2483 44.9238 37.4523C44.9238 38.6564 45.3916 39.8133 46.2284 40.679C46.7291 41.1549 47.3298 41.513 47.9865 41.7272C48.6432 41.9415 49.3394 42.0065 50.0244 41.9175C50.7094 41.8286 51.366 41.5879 51.9462 41.213C52.5264 40.8381 53.0156 40.3384 53.3782 39.7505L53.3318 39.8433Z" fill="#5CA6F8"/>
</svg>
