<svg width="17" height="20" viewBox="0 0 17 20" fill="none" xmlns="http://www.w3.org/2000/svg">
<path fill-rule="evenodd" clip-rule="evenodd" d="M8.28791 1.60411C10.2074 1.60411 11.7635 3.16018 11.7635 5.07969C11.7635 6.99919 10.2074 8.55526 8.28791 8.55526C6.3684 8.55526 4.81233 6.99919 4.81233 5.07969C4.81233 3.16018 6.3684 1.60411 8.28791 1.60411ZM13.3676 5.07969C13.3676 2.27425 11.0933 0 8.28791 0C5.48248 0 3.20822 2.27425 3.20822 5.07969C3.20822 7.88512 5.48248 10.1594 8.28791 10.1594C11.0933 10.1594 13.3676 7.88512 13.3676 5.07969Z" fill="#C1C1C3"/>
<path fill-rule="evenodd" clip-rule="evenodd" d="M14.0591 14.409C10.3271 13.0761 6.24873 13.0761 2.51668 14.409C1.96942 14.6044 1.60411 15.1228 1.60411 15.7039V17.1107C1.60411 17.8925 2.29651 18.493 3.07042 18.3824L4.09108 18.2366C6.87483 17.8389 9.70098 17.8389 12.4847 18.2366L13.5054 18.3824C14.2793 18.493 14.9717 17.8925 14.9717 17.1107V15.7039C14.9717 15.1228 14.6064 14.6044 14.0591 14.409ZM1.97716 12.8983C6.0581 11.4408 10.5177 11.4408 14.5987 12.8983C15.7843 13.3218 16.5758 14.4449 16.5758 15.7039V17.1107C16.5758 18.8687 15.0188 20.219 13.2785 19.9704L12.2579 19.8246C9.6246 19.4484 6.95122 19.4484 4.31793 19.8246L3.29727 19.9704C1.557 20.219 0 18.8687 0 17.1107V15.7039C0 14.4449 0.791477 13.3218 1.97716 12.8983Z" fill="#C1C1C3"/>
</svg>
