<svg width="12" height="12" viewBox="0 0 12 12" fill="none" xmlns="http://www.w3.org/2000/svg">
<path fill-rule="evenodd" clip-rule="evenodd" d="M5.13247 0.879851C2.78381 0.879851 0.879851 2.78381 0.879851 5.13247C0.879851 7.48112 2.78381 9.38508 5.13247 9.38508C7.48112 9.38508 9.38508 7.48112 9.38508 5.13247C9.38508 2.78381 7.48112 0.879851 5.13247 0.879851ZM0 5.13247C0 2.29788 2.29788 0 5.13247 0C7.96705 0 10.2649 2.29788 10.2649 5.13247C10.2649 7.96705 7.96705 10.2649 5.13247 10.2649C2.29788 10.2649 0 7.96705 0 5.13247Z" fill="#A0A1A5"/>
<path fill-rule="evenodd" clip-rule="evenodd" d="M8.04755 8.31611C8.21936 8.1443 8.4979 8.14431 8.6697 8.31611L11.6025 11.249C11.7743 11.4208 11.7743 11.6993 11.6025 11.8711C11.4307 12.0429 11.1522 12.0429 10.9804 11.8711L8.04755 8.93825C7.87575 8.76645 7.87575 8.48791 8.04755 8.31611Z" fill="#A0A1A5"/>
</svg>
