<svg width="11" height="12" viewBox="0 0 11 12" fill="none" xmlns="http://www.w3.org/2000/svg">
<path fill-rule="evenodd" clip-rule="evenodd" d="M3.73333 0.4C3.73333 0.179086 3.91242 0 4.13333 0H6.26667C6.48758 0 6.66667 0.179086 6.66667 0.4C6.66667 0.620914 6.48758 0.8 6.26667 0.8H5.6V1.61516C6.66848 1.69644 7.6467 2.10063 8.43729 2.73036L8.65049 2.51716C8.8067 2.36095 9.05997 2.36095 9.21618 2.51716C9.37239 2.67337 9.37239 2.92663 9.21618 3.08284L9.02344 3.27558C9.878 4.20217 10.4 5.44012 10.4 6.8C10.4 9.67188 8.07188 12 5.2 12C2.32812 12 0 9.67188 0 6.8C0 4.06271 2.11502 1.81941 4.8 1.61516V0.8H4.13333C3.91242 0.8 3.73333 0.620914 3.73333 0.4ZM5.2 2.4C2.76995 2.4 0.8 4.36995 0.8 6.8C0.8 9.23005 2.76995 11.2 5.2 11.2C7.63005 11.2 9.6 9.23005 9.6 6.8C9.6 4.36995 7.63005 2.4 5.2 2.4ZM7.08284 4.91716C7.23905 5.07337 7.23905 5.32663 7.08284 5.48284L5.48284 7.08284C5.32663 7.23905 5.07337 7.23905 4.91716 7.08284C4.76095 6.92663 4.76095 6.67337 4.91716 6.51716L6.51716 4.91716C6.67337 4.76095 6.92663 4.76095 7.08284 4.91716Z" fill="#ECA354"/>
</svg>
