<svg width="20" height="20" viewBox="0 0 20 20" fill="none" xmlns="http://www.w3.org/2000/svg">
<path fill-rule="evenodd" clip-rule="evenodd" d="M0 5.34884C0 2.39476 2.39476 0 5.34884 0H14.6512C17.6052 0 20 2.39476 20 5.34884V14.6512C20 17.6052 17.6052 20 14.6512 20H5.34884C2.39476 20 0 17.6052 0 14.6512V5.34884ZM5.34884 1.39535C3.16539 1.39535 1.39535 3.16539 1.39535 5.34884V14.6512C1.39535 16.8346 3.16539 18.6047 5.34884 18.6047H14.6512C16.8346 18.6047 18.6047 16.8346 18.6047 14.6512V5.34884C18.6047 3.16539 16.8346 1.39535 14.6512 1.39535H5.34884Z" fill="white"/>
<path fill-rule="evenodd" clip-rule="evenodd" d="M13.4884 10C13.4884 10.3853 13.176 10.6977 12.7907 10.6977H7.2093C6.82399 10.6977 6.51163 10.3853 6.51163 10C6.51163 9.61469 6.82399 9.30233 7.2093 9.30233H12.7907C13.176 9.30233 13.4884 9.61469 13.4884 10Z" fill="white"/>
<path fill-rule="evenodd" clip-rule="evenodd" d="M10 13.4883C9.61468 13.4883 9.30232 13.1759 9.30232 12.7906V7.20924C9.30232 6.82392 9.61468 6.51156 10 6.51156C10.3853 6.51156 10.6977 6.82392 10.6977 7.20924V12.7906C10.6977 13.1759 10.3853 13.4883 10 13.4883Z" fill="white"/>
</svg>
