<svg width="44" height="30" viewBox="0 0 44 30" fill="none" xmlns="http://www.w3.org/2000/svg">
<path fill-rule="evenodd" clip-rule="evenodd" d="M0 8.69767C0 3.89408 3.89408 0 8.69767 0H23.0233C27.8268 0 31.7209 3.89408 31.7209 8.69767V20.9767C31.7209 25.7803 27.8268 29.6744 23.0233 29.6744H8.69767C3.89408 29.6744 0 25.7803 0 20.9767V8.69767ZM8.69767 3.06977C5.58947 3.06977 3.06977 5.58947 3.06977 8.69767V20.9767C3.06977 24.085 5.58947 26.6047 8.69767 26.6047H23.0233C26.1315 26.6047 28.6512 24.085 28.6512 20.9767V8.69767C28.6512 5.58947 26.1315 3.06977 23.0233 3.06977H8.69767Z" fill="#DADADA"/>
<path fill-rule="evenodd" clip-rule="evenodd" d="M40.9302 8.27284C40.9302 7.52964 40.0953 7.09255 39.4845 7.51606L31.7209 12.8996V16.8851L39.4894 22.1983C40.1006 22.6163 40.9302 22.1786 40.9302 21.4381V8.27284ZM37.7353 4.99345C40.3817 3.15827 44 5.05231 44 8.27284V21.4381C44 24.647 40.405 26.5436 37.7564 24.7321L28.6512 18.5047V11.2927L37.7353 4.99345Z" fill="#DADADA"/>
</svg>
