<svg width="12" height="9" viewBox="0 0 12 9" fill="none" xmlns="http://www.w3.org/2000/svg">
<path fill-rule="evenodd" clip-rule="evenodd" d="M5.99998 0.923077C3.83871 0.923077 1.95787 2.12258 0.98991 3.8925C0.9008 4.05544 0.900799 4.25218 0.989906 4.41512C1.95785 6.18508 3.83871 7.38461 6.00002 7.38461C8.1613 7.38461 10.0421 6.18512 11.0101 4.4152C11.0992 4.25226 11.0992 4.05552 11.0101 3.89258C10.0421 2.12261 8.16129 0.923077 5.99998 0.923077ZM0.180035 3.44958C1.30368 1.39499 3.4885 0 5.99998 0C8.5115 0 10.6964 1.39504 11.82 3.44968C12.06 3.8886 12.06 4.41919 11.82 4.85811C10.6963 6.9127 8.5115 8.30769 6.00002 8.30769C3.4885 8.30769 1.30365 6.91266 0.180024 4.85802C-0.060012 4.41909 -0.0600079 3.88851 0.180035 3.44958Z" fill="#ECA354"/>
<path fill-rule="evenodd" clip-rule="evenodd" d="M6 2.76923C5.2353 2.76923 4.61538 3.38914 4.61538 4.15385C4.61538 4.91855 5.2353 5.53846 6 5.53846C6.7647 5.53846 7.38461 4.91855 7.38461 4.15385C7.38461 3.38914 6.7647 2.76923 6 2.76923ZM3.69231 4.15385C3.69231 2.87934 4.7255 1.84615 6 1.84615C7.2745 1.84615 8.30769 2.87934 8.30769 4.15385C8.30769 5.42835 7.2745 6.46154 6 6.46154C4.7255 6.46154 3.69231 5.42835 3.69231 4.15385Z" fill="#ECA354"/>
</svg>
